<svg id="Layer_1" data-name="Layer 1" xmlns="http://www.w3.org/2000/svg" viewBox="0 0 72 45"><defs><style>.cls-1{fill:none;}</style></defs><title>Behance</title><rect x="46.98" y="1.86" width="18.04" height="4.48"/><path d="M35,24.71a9.91,9.91,0,0,0-5.17-3.95,10.66,10.66,0,0,0,3.42-2.55,10,10,0,0,0,2.07-6.6,11.42,11.42,0,0,0-2-6.84C31,1.67,27.09.09,21.64,0H0V44.8H20.18a31.4,31.4,0,0,0,6.32-.6,12.35,12.35,0,0,0,8.23-5.77,13.11,13.11,0,0,0,2-7.15A11.84,11.84,0,0,0,35,24.71ZM10.33,7.78h8.34a17,17,0,0,1,5.29.7c1.6.66,2.4,2,2.4,4.13,0,1.89-.6,3.2-1.81,3.94a9,9,0,0,1-4.74,1.11H10.33Zm14,28.45A10.42,10.42,0,0,1,19.8,37H10.33V25.08H20a11.27,11.27,0,0,1,4.48.76,4.8,4.8,0,0,1,2.85,4.8Q27.28,34.78,24.34,36.23Z"/><path d="M71.72,23.35a16,16,0,0,0-2.56-6.64A13,13,0,0,0,63.62,12a18.34,18.34,0,0,0-7.55-1.5,15.49,15.49,0,0,0-11.48,4.45q-4.41,4.45-4.41,12.79,0,8.91,4.89,12.86a17.51,17.51,0,0,0,11.3,3.95q7.76,0,12.07-4.69A10.46,10.46,0,0,0,71.55,34H63a7.12,7.12,0,0,1-1.73,2.21A7.05,7.05,0,0,1,56.6,37.7,8.44,8.44,0,0,1,52,36.49c-2.11-1.29-3.22-3.54-3.35-6.77H72A43.41,43.41,0,0,0,71.72,23.35Zm-22.89.84a8.61,8.61,0,0,1,2.24-5,6.63,6.63,0,0,1,5-1.84,7.32,7.32,0,0,1,5,1.73,7,7,0,0,1,2.24,5.08Z"/><rect class="cls-1" width="72" height="45"/></svg>