<svg id="_3" data-name="3" xmlns="http://www.w3.org/2000/svg" viewBox="0 0 140.32 140.32"><title>Instagram</title><path d="M132.87,1162.82H72.43a40,40,0,0,1-39.94-39.94v-60.45a40,40,0,0,1,39.94-39.93h60.44a40,40,0,0,1,39.94,39.93v60.45A40,40,0,0,1,132.87,1162.82ZM72.43,1034.53a27.93,27.93,0,0,0-27.91,27.9v60.45a27.94,27.94,0,0,0,27.91,27.91h60.44a27.94,27.94,0,0,0,27.91-27.91v-60.45a27.93,27.93,0,0,0-27.91-27.9Z" transform="translate(-32.49 -1022.5)"/><path d="M102.65,1128.59a35.93,35.93,0,1,1,35.93-35.93A36,36,0,0,1,102.65,1128.59Zm0-59.83a23.9,23.9,0,1,0,23.9,23.9A23.93,23.93,0,0,0,102.65,1068.76Z" transform="translate(-32.49 -1022.5)"/><path d="M148.75,1054.68a8.64,8.64,0,1,1-8.63-8.64A8.63,8.63,0,0,1,148.75,1054.68Z" transform="translate(-32.49 -1022.5)"/></svg>