<svg xmlns="http://www.w3.org/2000/svg" xmlns:xlink="http://www.w3.org/1999/xlink" viewBox="0 0 400 300"><defs><style>.cls-1{isolation:isolate;}.cls-2{fill:#f9e8de;}.cls-3{fill:url(#radial-gradient);}.cls-4{fill:#ffd2a6;}.cls-5{fill:#ffbfa9;}.cls-6{fill:#f9a47a;}.cls-7{fill:#fff;}.cls-8{fill:#e9eae8;}.cls-9{fill:#e3eeb5;}.cls-10{fill:#ffe092;}.cls-11{fill:#66e254;}.cls-12{fill:#499933;}.cls-13{fill:#388423;}.cls-14{fill:#34751f;}.cls-15{fill:#56ba42;}.cls-16{fill:#74d359;}.cls-17{fill:#87ef75;}.cls-18{fill:#f9bc93;}.cls-19{fill:#ef9e67;}.cls-20{fill:#4fa839;}.cls-21{fill:#b09af4;opacity:0.58;mix-blend-mode:lighten;}</style><radialGradient id="radial-gradient" cx="199.5" cy="149.92" r="176.6" gradientUnits="userSpaceOnUse"><stop offset="0" stop-color="#b1c0ef"/><stop offset="1" stop-color="#cc95f4"/></radialGradient></defs><title>day2</title><g class="cls-1"><g id="Layer_2" data-name="Layer 2"><rect class="cls-2" x="-111" y="-68.65" width="621" height="437.15"/><rect class="cls-3" x="-0.5" y="0.35" width="400" height="299.15"/></g><g id="Layer_1" data-name="Layer 1"><polygon class="cls-4" points="66.5 187.5 101.5 139.5 178.5 204.5 266.5 153.5 301.5 176.5 268.91 248.11 98.5 270.5 66.5 187.5"/><polygon class="cls-5" points="212.5 202.5 194.5 254.5 257.99 252.37 267.5 182.5 212.5 202.5"/><polygon class="cls-6" points="266.5 153.5 266.5 264.5 301.5 175.5 266.5 153.5"/><polygon class="cls-6" points="101.5 139.5 165.5 212.5 178.5 204.5 101.5 139.5"/><polygon class="cls-7" points="74.94 175.92 101.5 164.5 139.12 182.44 101.5 139.5 74.94 175.92"/><polygon class="cls-8" points="132.5 165.5 139.5 182.5 101.5 139.5 132.5 165.5"/><polygon class="cls-7" points="241.12 168.21 266.5 189.87 266.5 153.5 241.12 168.21"/><polygon class="cls-8" points="283.65 164.28 274.5 164.5 266.5 189.5 266.5 153.5 283.65 164.28"/><polygon class="cls-4" points="385.5 106.5 366.5 71.5 199.5 258.5 385.5 232.5 385.5 106.5"/><polygon class="cls-6" points="366.5 71.5 351.5 147.5 366.5 245.5 385.5 232.5 385.5 106.5 366.5 71.5"/><polygon class="cls-8" points="366.5 71.5 385.5 106.5 379.5 131.5 358.9 110.03 366.5 71.5"/><polygon class="cls-7" points="366.5 71.5 312.5 131.5 358.5 110.5 366.5 71.5"/><polygon class="cls-5" points="357.51 186.75 351.5 146.5 312.5 223.5 339.5 236.11 357.51 186.75"/><polygon class="cls-4" points="4.5 158.5 38.5 114.5 128.5 314.5 8.5 314.5 4.5 158.5"/><polygon class="cls-6" points="38.5 114.5 83.5 283.5 111.31 276.31 38.5 114.5"/><path class="cls-9" d="M7.81,269.68S30.5,239.5,55.5,254.5c55,29,65-36,106-28s53,27,89-7,61,17,92-23S397,173.65,397,173.65L392.5,309.5l-385,1Z"/><path class="cls-7" d="M392.5,296.5l-385,2v-14s27.65-23.83,47-12c18,11,20,4,46-6s31,7,62-8,35,13,57-2,30-12,47-1c24,15,35-23,58-14,50,17,36-28,68-23v78"/><path class="cls-10" d="M392.5,298.5s-240-36-385-29v31Z"/><polygon class="cls-7" points="10.5 162.5 27.5 157.5 55.52 178.42 55.52 152.32 38.5 114.5 4.5 158.5 10.5 162.5"/><polygon class="cls-8" points="55.5 178.5 38.5 114.5 55.5 152.5 55.5 178.5"/></g><g id="Layer_4" data-name="Layer 4"><polygon class="cls-11" points="308.5 244.5 332.5 278.5 329.5 246.5 308.5 244.5"/><polygon class="cls-12" points="364.5 220.5 367.5 272.5 329.5 246.5 364.5 220.5"/><polygon class="cls-13" points="367.5 272.5 389.5 246.5 364.5 220.5 367.5 272.5"/><polygon class="cls-14" points="357.5 173.5 364.5 220.5 389.5 246.5 357.5 173.5"/><polygon class="cls-15" points="329.5 246.5 364.5 220.5 357.5 173.5 329.5 246.5"/><polygon class="cls-16" points="348.5 173.5 329.5 246.5 357.5 173.5 348.5 173.5"/><polygon class="cls-17" points="308.5 244.5 348.5 173.5 329.5 246.5 308.5 244.5"/><rect class="cls-18" x="344.5" y="272.5" width="4" height="34"/><polygon class="cls-19" points="352.5 272.5 354.5 306.5 348.5 306.5 348.5 272.5 352.5 272.5"/><polygon class="cls-20" points="367.5 272.5 329.5 246.5 332.5 278.5 367.5 272.5"/><polygon class="cls-21" points="357.5 173.5 348.5 173.5 308.5 244.5 332.5 278.5 352.65 275.05 367.5 272.5 389.5 246.5 357.5 173.5"/><polygon class="cls-21" points="354.5 306.5 352.5 275.5 344.5 276.6 344.5 306.5 354.5 306.5"/><polygon class="cls-11" points="266.5 236.5 290.5 270.5 287.5 238.5 266.5 236.5"/><polygon class="cls-12" points="322.5 212.5 325.5 264.5 287.5 238.5 322.5 212.5"/><polygon class="cls-13" points="325.5 264.5 347.5 238.5 322.5 212.5 325.5 264.5"/><polygon class="cls-14" points="315.5 165.5 322.5 212.5 347.5 238.5 315.5 165.5"/><polygon class="cls-15" points="287.5 238.5 322.5 212.5 315.5 165.5 287.5 238.5"/><polygon class="cls-16" points="306.5 165.5 287.5 238.5 315.5 165.5 306.5 165.5"/><polygon class="cls-17" points="266.5 236.5 306.5 165.5 287.5 238.5 266.5 236.5"/><rect class="cls-18" x="302.5" y="264.5" width="4" height="34"/><polygon class="cls-19" points="310.5 264.5 312.5 298.5 306.5 298.5 306.5 264.5 310.5 264.5"/><polygon class="cls-20" points="325.5 264.5 287.5 238.5 290.5 270.5 325.5 264.5"/><polygon class="cls-11" points="54.5 249.72 39.98 270.29 41.8 250.93 54.5 249.72"/><polygon class="cls-12" points="20.62 235.2 18.81 266.66 41.8 250.93 20.62 235.2"/><polygon class="cls-13" points="18.81 266.66 5.5 250.93 20.62 235.2 18.81 266.66"/><polygon class="cls-14" points="24.86 206.77 20.62 235.2 5.5 250.93 24.86 206.77"/><polygon class="cls-15" points="41.8 250.93 20.62 235.2 24.86 206.77 41.8 250.93"/><polygon class="cls-16" points="30.3 206.77 41.8 250.93 24.86 206.77 30.3 206.77"/><polygon class="cls-17" points="54.5 249.72 30.3 206.77 41.8 250.93 54.5 249.72"/><rect class="cls-18" x="30.3" y="266.66" width="2.42" height="20.57"/><polygon class="cls-19" points="27.88 266.66 26.67 287.23 30.3 287.23 30.3 266.66 27.88 266.66"/><polygon class="cls-20" points="18.81 266.66 41.8 250.93 39.98 270.29 18.81 266.66"/><polygon class="cls-21" points="315.5 165.5 306.5 165.5 266.5 236.5 290.5 270.5 310.65 267.05 325.5 264.5 347.5 238.5 315.5 165.5"/><polygon class="cls-21" points="312.5 298.5 310.5 267.5 302.5 268.6 302.5 298.5 312.5 298.5"/><polygon class="cls-21" points="24.86 206.77 30.3 206.77 54.5 249.72 39.98 270.29 27.79 268.2 18.81 266.66 5.5 250.93 24.86 206.77"/><polygon class="cls-21" points="26.67 287.23 27.88 268.48 32.72 269.14 32.72 287.23 26.67 287.23"/></g></g></svg>