<svg id="Layer_6" data-name="Layer 6" xmlns="http://www.w3.org/2000/svg" xmlns:xlink="http://www.w3.org/1999/xlink" viewBox="0 0 400 300"><defs><style>.cls-1{fill:#fff;}.cls-2{fill:url(#radial-gradient);}.cls-3{fill:url(#radial-gradient-2);}.cls-4{fill:url(#radial-gradient-3);}.cls-5{fill:url(#radial-gradient-4);}.cls-6{fill:url(#radial-gradient-5);}.cls-7{fill:url(#radial-gradient-6);}.cls-8{fill:url(#radial-gradient-7);}.cls-9{fill:url(#radial-gradient-8);}.cls-10{fill:url(#radial-gradient-9);}</style><radialGradient id="radial-gradient" cx="128.5" cy="41.5" r="4" gradientUnits="userSpaceOnUse"><stop offset="0" stop-color="#fff"/><stop offset="0.13" stop-color="#fff" stop-opacity="0.86"/><stop offset="0.56" stop-color="#fff" stop-opacity="0.4"/><stop offset="0.86" stop-color="#fff" stop-opacity="0.11"/><stop offset="1" stop-color="#fff" stop-opacity="0"/></radialGradient><radialGradient id="radial-gradient-2" cx="190.5" cy="121.5" r="4" xlink:href="#radial-gradient"/><radialGradient id="radial-gradient-3" cx="66.5" cy="101.5" r="4" xlink:href="#radial-gradient"/><radialGradient id="radial-gradient-4" cx="312.5" cy="33.5" r="4" xlink:href="#radial-gradient"/><radialGradient id="radial-gradient-5" cx="336.5" cy="75.5" r="4" xlink:href="#radial-gradient"/><radialGradient id="radial-gradient-6" cx="373.5" cy="25.5" r="4" xlink:href="#radial-gradient"/><radialGradient id="radial-gradient-7" cx="42.5" cy="23.5" r="4" xlink:href="#radial-gradient"/><radialGradient id="radial-gradient-8" cx="290.5" cy="125.5" r="4" xlink:href="#radial-gradient"/><radialGradient id="radial-gradient-9" cx="26.5" cy="74.5" r="4" xlink:href="#radial-gradient"/></defs><title>stars</title><circle class="cls-1" cx="128.5" cy="41.5" r="1"/><circle class="cls-2" cx="128.5" cy="41.5" r="4"/><circle class="cls-1" cx="190.5" cy="121.5" r="1"/><circle class="cls-3" cx="190.5" cy="121.5" r="4"/><circle class="cls-1" cx="66.5" cy="101.5" r="1"/><circle class="cls-4" cx="66.5" cy="101.5" r="4"/><circle class="cls-1" cx="312.5" cy="33.5" r="1"/><circle class="cls-5" cx="312.5" cy="33.5" r="4"/><circle class="cls-1" cx="336.5" cy="75.5" r="1"/><circle class="cls-6" cx="336.5" cy="75.5" r="4"/><circle class="cls-1" cx="373.5" cy="25.5" r="1"/><circle class="cls-7" cx="373.5" cy="25.5" r="4"/><circle class="cls-1" cx="42.5" cy="23.5" r="1"/><circle class="cls-8" cx="42.5" cy="23.5" r="4"/><circle class="cls-1" cx="290.5" cy="125.5" r="1"/><circle class="cls-9" cx="290.5" cy="125.5" r="4"/><circle class="cls-1" cx="26.5" cy="74.5" r="1"/><circle class="cls-10" cx="26.5" cy="74.5" r="4"/><circle class="cls-1" cx="132.5" cy="120.5" r="1"/><circle class="cls-1" cx="107.5" cy="70.5" r="1"/><circle class="cls-1" cx="18.5" cy="105.5" r="1"/><circle class="cls-1" cx="81.5" cy="139.5" r="1"/><circle class="cls-1" cx="70.5" cy="60.5" r="1"/><circle class="cls-1" cx="184.5" cy="13.5" r="1"/><circle class="cls-1" cx="160.5" cy="84.5" r="1"/><circle class="cls-1" cx="95.5" cy="8.5" r="1"/><circle class="cls-1" cx="183.5" cy="171.5" r="1"/><circle class="cls-1" cx="80.5" cy="117.5" r="1"/><circle class="cls-1" cx="325.5" cy="9.5" r="1"/><circle class="cls-1" cx="241.5" cy="146.5" r="1"/><circle class="cls-1" cx="271.5" cy="14.5" r="1"/><circle class="cls-1" cx="213.5" cy="55.5" r="1"/><circle class="cls-1" cx="313.5" cy="103.5" r="1"/><circle class="cls-1" cx="294.5" cy="75.5" r="1"/><circle class="cls-1" cx="20.5" cy="34.5" r="1"/><circle class="cls-1" cx="377.5" cy="74.5" r="1"/><circle class="cls-1" cx="340.5" cy="45.5" r="1"/></svg>